<?xml version="1.0" encoding="UTF-8"?>
<svg id="Ebene_1" xmlns="http://www.w3.org/2000/svg" version="1.1" viewBox="0 0 468.6982 211.47061">
  <!-- Generator: Adobe Illustrator 29.2.1, SVG Export Plug-In . SVG Version: 2.1.0 Build 116)  -->
  <defs>
    <style>
      .st0 {
        fill: #fff;
      }

      .st1 {
        fill: #61269e;
      }
    </style>
  </defs>
  <path class="st1" d="M468.63547,24.82998c-.3125-3.95996-2.04004-7.54004-4.86621-10.08301-2.96777-2.6709-6.83789-3.97266-10.89844-3.64746l-8.99805.70801c-2,.1582-3.8623.70801-5.52637,1.5752-1.8418-.59961-3.80273-.83984-5.7627-.68652l-15.4082,1.21289c-2.61517.20593-5.09998,1.11951-7.22986,2.59833-3.64465-1.82721-7.49219-2.52063-11.20081-2.2995-.62305-5.47168-3.27539-8.77051-5.43945-10.59473-2.21973-1.87109-6.08691-4.01367-11.88672-3.54883l-11.38867.89551c-4.25684.33496-8.03027,2.24512-10.625,5.37891-.54626.65955-1.01825,1.37213-1.43951,2.11462-.52161-.64758-1.08447-1.26178-1.71771-1.81775-2.18945-1.92188-6.07129-4.11719-12.15332-3.63379l-11.77441.92578c-8.75879.69141-14.875,7.73926-14.34766,16.45703.02148.55762.07324,1.1084.15332,1.65039-3.64056,1.66089-6.83197,4.2876-9.45508,7.78424-5.58398-4.90881-12.72089-7.52045-20.49707-6.91315-5.52802.43518-10.55841,2.53625-14.84991,5.89563-2.78247-2.02197-6.29803-3.07214-10.13446-2.77356l-7.94238.625c-2.00977.15723-3.9375.70996-5.67773,1.60156-1.85254-.60059-3.875-.84961-5.99902-.68262l-14.35352,1.12988c-3.70459.29138-7.03131,1.72736-9.57562,4.07043-4.71417-2.5083-10.02618-3.68732-15.68561-3.2384-5.78564.45508-10.96716,2.49182-15.35107,5.77417-3.19165-2.75909-7.22278-3.70087-10.85107-3.42358-2.73535.21582-5.25635,1.07617-7.55127,2.57324-1.83984-.58008-3.85107-.80762-5.96729-.6416l-9.66357.76074c-3.32495.26093-6.24628,1.45532-8.56543,3.3222-3.89014-2.16382-8.24109-3.15363-12.77393-2.79877-3.21143.25293-6.24951,1.27148-8.96387,2.95508-2.05078-.65918-4.12109-.76953-5.97119-.62402l-11.6748.91895c-3.12427.24585-5.98291,1.34686-8.31152,3.15002-3.8302-2.07568-8.10059-3.01495-12.54736-2.66467-3.21191.25293-6.25,1.27246-8.96484,2.95605-2.04883-.65918-4.11865-.77051-5.96924-.625l-11.6748.91895c-2.58582.20349-4.98865.99591-7.06219,2.2829-.66821-1.70618-1.34045-3.3797-2.02228-4.99286-2.71777-6.56836-8.39209-10.16211-15.18994-9.62988-.77783.06055-1.49023.13672-2.29688.22363-.81006.08789-1.7417.18945-3.05225.29395-.45557.03516-.92725.03711-1.43848.04785-.95703.01855-2.14844.04102-3.55566.15234-5.07764.39844-11.59668,3.00586-13.84326,13.15332-1.55127,6.73828-3.12598,16.04785-4.96289,29.34668-1.20605,9.0918-2.31348,22.77148-2.74023,28.86426-.04443.45508-.08691.73535-.11475.89062-2.21191,3.59961-3.13232,7.32227-2.81396,11.37598.62402,7.90039,6.61084,13.52148,14.15039,13.52148.21802,0,.44037-.0166.66095-.02612l1.77118,9.52026c-1.11865,2.45874-1.61383,5.24567-1.38525,8.14941.34326,4.33887,2.2417,8.14063,5.51025,11.05957l.00439.05273,2.26953,28.84082c.00391.0498.00732.09766.01074.14453-2.7417,3.48047-3.96338,7.33789-3.63477,11.49316.68213,8.66406,6.96338,14.62109,15.16113,14.62012.44727,0,.90039-.01758,1.3584-.05371l17.06689-1.34375c2.01172-.15723,3.91895-.70898,5.62939-1.60254,2.03418.5957,4.26904.82617,6.63525.6377l13.53906-1.06543c2.37158-.18652,4.53418-.89453,6.39551-2.0127,2.89551,1.01953,5.69531,1.06348,7.53369.91602l10.59863-.83301c3.81372-.30127,7.10846-1.88062,9.54358-4.3147,4.38788,2.39856,9.29364,3.70337,14.52527,3.70337.83105,0,1.67285-.0332,2.51953-.09961,4.96478-.3905,12.06372-2.19482,17.7135-8.54272,4.64655,3.78601,10.13031,5.37378,15.28845,5.37378.6665,0,1.32764-.02637,1.97998-.07812,3.75977-.2959,7.38379-1.54395,10.58984-3.58203,3.31787,1.47559,7.00635,2.10156,10.88672,1.79395,3.86261-.30469,7.35339-1.51953,10.24432-3.51685,2.34961.77527,4.99091,1.18286,7.95197,1.18286.94482,0,1.92188-.04004,2.9292-.11914l9.12256-.71777c4.35779-.34265,8.04352-2.23608,10.58447-5.13501,2.60242,2.20825,5.96057,3.48315,9.73486,3.48267.44678,0,.90088-.01758,1.3584-.05371l17.26465-1.35938c3.92938-.30835,7.4151-1.95337,9.96307-4.65161,4.50214,2.49341,9.46747,3.80298,14.64532,3.80298.81641,0,1.63672-.03223,2.46191-.09766,9.02301-.70984,16.84698-5.42651,22.31567-13.35034,3.97595,7.85742,10.44421,9.38062,14.83765,9.38062.54102,0,1.05078-.02246,1.51953-.05957l4.01953-.31738c.74316-.05859,1.67969-.08887,2.67188-.12109,1.1582-.03711,2.35645-.07617,3.52344-.16895,3.95551-.31079,10.73334-2.25879,13.80438-11.39136,5.95514,6.00269,13.60071,9.45386,22.10968,9.45386.83105,0,1.67188-.0332,2.51953-.09961,3.99988-.3147,9.38562-1.54688,14.28253-5.33179,2.27466,1.3772,4.95648,2.15149,7.8913,2.15112.44629,0,.90039-.01758,1.3584-.05371l16.57812-1.30469c3.73212-.29395,7.10516-1.70288,9.67212-4.00024.08789.04224.177.08643.26343.12622,4.57617,2.17871,10.60449,2.92676,15.43848,2.92676,1.16992,0,2.27051-.04395,3.26367-.12207,16.70703-1.31543,28.23535-15.91797,26.81543-33.96777-.60254-7.66211-3.00391-14.03418-7.26953-19.20703.75391-1.32227,1.39746-2.89844,1.86426-4.77637l.05566-.23633c2.5025-11.138-.71277-17.54926-4.58838-21.18378.15967-.37317.31793-.74927.4624-1.15118,2.22363-5.75098,4.01953-11.31152,5.54395-19.62207,2.7832-15.08496,4.43457-30.58301,4.77539-44.81836l.00293-.24512c.00098-.27344.01367-.45703.02441-.56543,1.7793-3.08496,2.53125-6.54688,2.23535-10.29883Z"/>
  <g>
    <path class="st0" d="M30.22531,111.33291c-.18066-2.2959-1.14746-3.56836-2.99121-4.96387-1.33398-1.05176-1.7998-2.07324-1.91992-3.60449-.08301-1.05273.03809-3.17969.30859-4.64648.16602-1.55371.5918-2.26172,1.83594-2.35938,1.62695-.12793,3.16602-.15137,4.40918-.25,1.62695-.12793,2.57715-.2998,4.39551-.44238,1.14844-.09082,1.67969.54102,2.16699,1.85156.54102,1.97949,1.0752,3.86328,1.17285,5.10742.13574,1.72266-.28223,2.52441-1.62793,3.78711-1.33008,1.45312-1.87207,3.13184-1.72168,5.0459.18848,2.39258,1.57617,4.11328,3.96777,3.9248l19.23535-1.51367c2.29688-.18164,2.71289-2.23633,2.58496-3.8623-.15039-1.91406-.83789-3.30566-2.10645-4.74512-1.47559-1.61816-2.07422-3.11133-2.66113-5.66504-2.26074-9.16113-4.19629-16.61621-7.20996-26.77832-3.16309-10.8252-6.41211-20.29395-9.96094-28.68164-.9541-2.33105-2.27344-3.19043-4.37793-3.02441-1.53223.12012-2.76855.31348-5.35156.51758-1.43555.1123-2.98242.04199-4.99219.2002-2.48828.19531-3.44238,1.52148-4.15039,4.75488-1.65137,7.16016-3.26074,17.30078-4.79492,28.39844-1.14844,8.66016-2.22852,21.83984-2.68164,28.32715-.25977,2.81348-.73633,4.10254-1.58789,5.51758-1.02734,1.62207-1.48828,3.10156-1.33789,5.01562.17285,2.20117,1.44922,3.73828,3.74609,3.55762l12.44141-.97949c2.2002-.17285,3.41211-1.90527,3.20898-4.48926ZM27.78586,64.43936c.25586-1.65625,1.78613-1.77734,2.29688-.18066,1.61328,4.59082,4.41602,15.73242,4.93652,18.67773.11328,1.43457-.13672,1.93555-1.57227,2.04883l-5.7334.54688c-1.33984.10547-1.76855-.43848-1.77832-1.78613.02344-3.37207.91797-14.03418,1.85059-19.30664Z"/>
    <path class="st0" d="M58.1257,62.05166c2.14551,1.56348,2.87012,3.43262,3.03809,6.78906l3.47949,44.21289c.38184,3.62891.00879,5.00684-1.40918,6.56152-1.60254,1.66699-2.16699,3.05957-2.03125,4.7832.24121,3.06152,2.09961,4.64844,4.77832,4.4375l16.84277-1.3252c2.9668-.2334,4.65723-2.00293,4.42383-4.9707-.12793-1.62695-.89551-2.81836-2.92285-4.10254-1.73242-1.21191-2.41211-2.50586-2.58691-5.95898l.03711.47852c-.0752-.95703.17383-1.45801.93945-1.51855.47852-.03711.96484.02051,1.74512.15137.67773.04297,1.9375.13672,3.18066.03906,12.72852-1.00195,18.96387-13.52832,17.38965-33.5293-1.46094-18.56543-8.5625-29.27246-18.41895-28.49707-3.63672.28613-6.5332,2.63281-8.4707,6.15527-.76367,1.31152-1.73535,1.19531-2.12012-.02539-1-2.90723-1.75977-4.00195-4.34375-3.79883l-11.6748.91895c-2.67969.21094-4.3623,2.07715-4.12109,5.13965.12793,1.62695.80762,2.9209,2.24512,4.05957ZM80.99094,65.06631c3.34961-.26367,6.66406,8.81543,7.7334,22.40527.67773,8.6123-.74805,13.73145-3.99512,14.08398-2.86328.32031-4.42188-2.34863-4.91895-8.66504l-1.86719-23.7334c-.18066-2.2959,1.13379-3.94043,3.04785-4.09082Z"/>
    <path class="st0" d="M105.59445,58.31631c2.14453,1.56348,2.86914,3.43262,3.03809,6.78809l3.47949,44.21289c.38086,3.62988.00879,5.00684-1.41016,6.5625-1.60156,1.66602-2.16602,3.05859-2.03027,4.78223.24023,3.06152,2.09863,4.64941,4.77832,4.43848l16.84277-1.32617c2.9668-.2334,4.65723-2.00195,4.42285-4.96973-.12793-1.62695-.89453-2.81836-2.92188-4.10254-1.73242-1.21191-2.41211-2.50684-2.58789-5.95996l.03809.47852c-.0752-.95703.17383-1.45801.93945-1.51758.47852-.03809.96387.02051,1.74512.15137.67773.04297,1.93652.13672,3.18066.03809,12.72754-1.00098,18.96387-13.52832,17.38965-33.5293-1.46191-18.56543-8.5625-29.27246-18.41992-28.49609-3.63574.28613-6.53223,2.63281-8.46973,6.1543-.76367,1.31152-1.73535,1.19629-2.12109-.02441-.99902-2.9082-1.75879-4.00293-4.34277-3.79883l-11.67578.91895c-2.67871.21094-4.36133,2.07617-4.12012,5.13867.12793,1.62695.80664,2.92188,2.24512,4.06055ZM128.45969,61.32998c3.34961-.26367,6.66406,8.81543,7.7334,22.40527.67773,8.6123-.74902,13.73242-3.99512,14.08398-2.86328.32031-4.42188-2.34863-4.91895-8.66504l-1.86719-23.7334c-.18066-2.2959,1.13379-3.93945,3.04785-4.09082Z"/>
    <path class="st0" d="M153.54074,54.54288c2.04883,1.57129,2.77441,3.43945,3.03809,6.78809l2.21387,28.13574c.29395,3.73242-.0791,5.10938-1.49805,6.66602-1.60156,1.66699-2.07031,3.05176-1.94238,4.67871.24902,3.1582,2.01074,4.75195,4.78613,4.53418l16.17285-1.27344c3.0625-.24121,4.84082-2.11328,4.59277-5.27148-.12793-1.62695-.90332-2.91406-3.03418-4.28711-1.73926-1.30859-2.51465-2.59473-2.80859-6.32715l-2.07422-23.90918c-.15039-1.91309.80371-3.24023,1.95215-3.33105,1.05273-.08301,1.6875.6377,2.46289,1.92383,1.12305,2.03125,1.75,2.65625,2.89746,2.56543,2.77539-.21875,3.99414-6.76562,3.24023-16.33594-.36914-4.68848-1.87402-6.68848-4.9375-6.44824-2.4873.19629-4.7373,2.20312-6.9082,6.41699-.58691,1.10645-1.45605,1.07812-1.82617.04883l-.28125-1.13477c-.68164-2.5459-2.20801-3.58105-4.50488-3.39941l-9.66504.76074c-2.77539.21777-4.3623,2.07617-4.2168,5.14648.12793,1.62695.80762,2.9209,2.34082,4.05273Z"/>
    <path class="st0" d="M228.7136,68.84659c-1.38574-17.6084-11.4707-29.52441-23.91113-28.5459-13.20605,1.03906-21.80957,15.29297-20.30371,34.43262,1.35645,17.22559,11.9043,28.91309,24.72852,27.9043,12.63184-.99414,20.96289-15.03418,19.48633-33.79102ZM209.08176,90.99795c-3.82812.30176-7.1377-9.93457-8.49316-27.15918-.60254-7.65625,1.00293-11.73047,3.49121-11.92676,3.82715-.30078,7.13574,9.93359,8.50684,27.35059.59473,7.56055-.9209,11.53223-3.50488,11.73535Z"/>
    <path class="st0" d="M227.36399,49.2128c1.4834,1.71289,2.09082,3.30273,2.60254,6.15137,2.89355,15.94824,6.78223,29.89355,10.88477,39.19922,1.30176,3.0752,2.84961,4.39746,6.10352,4.1416l3.92383-.30859c1.91406-.15039,4.22559-.13965,6.04395-.2832,2.67969-.21094,3.8916-1.94336,4.6875-5.28027,2.39746-9.91309,4.21191-24.78809,4.83008-41.39941.0918-2.51074.53027-4.27734,1.35938-5.98047.57227-1.2959,1.02441-2.87207.89648-4.49902-.21094-2.67969-2.0752-4.3623-4.65918-4.15918l-7.94336.625c-2.4873.19531-4.06055,2.24512-3.82715,5.21191.12793,1.62598.88867,2.72266,1.86328,4.08984,1.17285,1.44824,1.6543,2.66211,1.60059,5.65137-.19824,8.48926-.81543,17.78125-1.68848,23.82129-.15918,1.64844-1.87402,1.87988-2.30371.08496-1.56348-5.17383-3.62598-14.25488-4.9082-23.20508-.30664-2.67188-.03711-4.13867.90332-5.65527.84375-1.5127,1.30469-2.99219,1.13965-5.09863-.2041-2.58301-1.96582-4.17773-4.4541-3.98145l-14.35449,1.12988c-3.0625.24023-4.73047,2.29785-4.48926,5.35938.16504,2.10645.83008,3.20898,1.78906,4.38477Z"/>
    <path class="st0" d="M294.41672,96.12491c9.09082-.71484,14.35156-7.29199,15.96387-19.83984.41406-3.30566-.16309-4.5127-2.51855-5.09766-3.5293-.78223-4.26367-.33887-4.84277,2.11523-1.25,4.91211-3.5127,7.97852-7.24414,8.27246-2.77539.21875-5.40527-1.4043-7.06836-4.16211-.75195-1-1.52637-2.28613-1.64746-3.81738-.08984-1.14941.4541-1.57812,1.66797-2.05762,2.04395-.93066,4.4873-1.70117,6.65039-2.35352,2.44238-.76953,5.00391-1.25977,7.55762-1.84668,5.00488-1.25977,7.22949-4.80566,6.69434-11.60059-1.06934-13.58887-9.69922-22.92285-20.6084-22.06445-12.3457.97168-21.00684,15.71191-19.59863,33.60742,1.43848,18.27832,11.97949,29.86914,24.99414,28.84473ZM288.03781,44.43838c2.58398-.2041,4.85938,4.24023,5.36426,10.65039.20312,2.58398-.36816,3.88086-1.83984,4.76758-1.50879.4082-2.97852,1.29297-4.14746,2.34766-.44922.4209-.71387.73047-1.19141.76855-1.14941.08984-1.47559-1.61621-1.84473-6.30664-.55664-7.08105,1.0752-12.02441,3.65918-12.22754Z"/>
    <path class="st0" d="M329.6052,92.97061c3.63086-.38184,6.84375-2.36816,9.16406-5.9209.86621-1.22363,2.12598-1.13086,2.52539.28223.87402,2.53125,2.0166,3.59766,4.79199,3.37891l10.14355-.79883c2.58398-.20312,4.06836-2.14941,3.81152-5.40332-.14258-1.81738-.92578-3.20117-2.68066-4.69922-1.54785-1.32227-2.14746-2.81641-2.35254-6.65137l-4.27051-54.25977c-.30859-3.92383-2.06445-5.42383-5.7959-5.12988l-11.77148.92578c-2.87109.22656-4.64941,2.10059-4.4082,5.16211.02441,1.53809.7998,2.8252,2.42969,3.94922,2.24023,1.55664,2.96582,3.42578,3.22168,6.67871l.01465.19238c.07617.95703-.18164,1.3623-.85156,1.41504-.47852.03809-1.17773-.29199-2.06934-.60742-1.19434-.4834-2.9541-.82617-4.67578-.69141-10.91016.85938-16.82715,14.99805-15.16992,36.05176,1.31738,16.74707,8.27148,26.79102,17.94336,26.12598ZM331.57883,42.1669c2.58398-.20312,4.48047,3.11523,4.9043,9.72461l1.71777,21.81934c.16602,2.10449-.96484,3.63867-2.87891,3.78906-3.35059.26367-6.80469-9.38184-7.85156-22.68359-.58789-7.46484,1.04492-12.4082,4.1084-12.64941Z"/>
    <path class="st0" d="M399.26828,24.996c-3.34863.26367-6.36328,2.33008-8.33105,5.4707-.59473,1.00977-1.74316,1.09961-1.84863-.24023l-1.04199-14.45703c-.27832-3.54102-2.33496-5.20996-5.78125-4.93848l-11.3877.89551c-2.67871.21094-4.36133,2.07812-4.12012,5.13965.12793,1.62695.80762,2.92188,2.24512,4.05957,2.14453,1.56641,2.86914,3.43359,3.13281,6.7832l3.23145,41.05371c.24121,3.0625-.11719,4.63184-1.4541,5.98926-1.42676,1.45996-2.07812,2.95605-1.93457,4.77441.16504,2.10449.96289,3.67871,2.87988,4.7793,4.7373,2.70898,12.54395,4.02051,20.2002,3.41797,15.79004-1.24316,23.65918-13.80176,22.04785-34.28125-1.43066-18.18262-8.25977-29.10352-17.83789-28.44629ZM396.43039,77.02334c-2.58398.20312-3.89746-1.8125-4.25195-6.30859l-1.98242-26.4209c-.17383-2.20117,1.2373-3.85254,3.24707-4.01074,3.34961-.26367,6.2959,9.03711,7.32812,22.14844.76074,9.66504-.90332,14.22559-4.34082,14.5918Z"/>
    <path class="st0" d="M457.86985,25.68057c-.19531-2.48828-1.9502-3.9873-4.15039-3.81445l-8.99512.70801c-2.20117.17285-3.67773,2.21582-3.47461,4.7998.16602,2.10449,1.12402,3.28027,2.17871,4.44922,1.24805,1.15332,1.75,2.65527,1.67383,5.35742.18164,7.20703-.41406,15.53516-1.29395,21.47852-.3125,2.1416-1.85156,2.16699-2.38477.2832-1.86523-5.3418-4.01367-13.06738-5.55859-20.45703-.64648-3.31934-.30371-5.08008.72461-6.70117.87402-1.12891,1.5498-2.33691,1.41406-4.05859-.20312-2.58398-2.17969-4.45117-4.57129-4.2627l-15.4082,1.21289c-2.39258.18848-4.13379,2.54004-3.91504,5.31445.1123,1.43652.50488,2.75391,1.55273,3.82617,1.15918,1.25781,1.74219,2.55859,2.2832,4.53809,3.94238,14.61523,8.84863,29.25,14.38086,43.25781.71875,1.77441.63184,3.12793-.41016,4.55859l-6.34668,8.68359c-.85938,1.31934-1.44629,2.4248-1.33301,3.86133.13574,1.72168,1.66113,2.75684,3.8623,2.58398l13.39746-1.05469c2.48828-.19531,3.56934-1.14746,4.43262-3.62305,2.00195-5.16504,3.63379-10.10742,5.04883-17.82422,2.63281-14.2666,4.26367-29.03125,4.59961-43.11621.00293-2.40723.44043-4.1748,1.37402-5.78906.68262-1.11328,1.0625-2.39453.91895-4.21191Z"/>
    <path class="st0" d="M104.06027,185.25284c-1.28418-1.28027-1.99707-2.80371-2.31934-5.64062l-4.80176-30.91309c-1.44336-9.55957-6.72852-15.26367-14.47852-14.6543-4.5127.35547-8.25098,3.01855-10.75684,7.55859-.4209.92188-.58594,1.33008-1.27246,1.38379-.58887.0459-.92969-.51855-1.28613-1.28027-2.12012-4.375-5.81445-6.15625-10.32715-5.80176-4.70898.37109-8.16895,2.81445-10.48535,7.24219-.58594,1.3291-1.59766,1.01367-1.86328.14648-1.19922-3.95312-2.48535-5.2334-6.21289-4.93945l-10.00684.78711c-2.74707.21582-4.47168,2.12891-4.22461,5.26758.13184,1.66797.82812,2.99512,2.30273,4.16211,2.19824,1.60352,2.94141,3.51953,3.21191,6.95313l2.26953,28.8418c.30078,3.82617-.08105,5.2373-1.53516,6.83301-1.64258,1.70801-2.2207,3.13574-2.08887,4.80371.25488,3.2373,2.1582,4.86328,4.90527,4.64746l17.07031-1.34375c2.35352-.18457,3.68652-2.06641,3.43164-5.30371-.13086-1.66797-.82812-2.99512-2.42285-4.44824-1.48926-1.36426-1.98926-2.70605-2.29004-6.53223l-2.18555-27.7627c-.16211-2.06055,1.20117-3.5498,3.35938-3.71973,2.64844-.20898,4.38281,3.01172,4.61621,7.2373l1.95215,28.57031c.16797.87598.02637,1.57715-.40234,2.40234-.4209.91992-.44238,1.90918-.38086,2.69336.37109,4.70898,3.24902,6.16113,6.58398,5.89844l13.53809-1.06543c2.25684-.17773,3.60449-1.8623,3.38867-4.60938-.15527-1.96191-1.07031-3.56836-3.05078-4.89355-1.66895-1.15039-2.16992-2.49414-2.40137-5.43652l-2.49805-29.21875c-.16211-2.05957,1.02051-3.33887,3.07422-3.59766,2.05957-.16211,3.65625,2.5752,4.19238,6.87598l4.09473,31.9541c.87891,6.15039,2.91211,8.16113,7.13086,7.8291l10.59473-.83301c3.04102-.24023,4.22949-2.70117,4.02832-5.25195-.16211-2.06055-.86621-3.48633-2.4541-4.8418Z"/>
    <path class="st0" d="M142.8591,169.0712c-3.61621-.80176-4.37012-.34766-4.96191,2.16699-1.28125,5.03711-3.60059,8.17969-7.42676,8.48145-2.84473.22363-5.54199-1.44043-7.24512-4.2666-.77148-1.02539-1.56641-2.34473-1.68945-3.91406-.09277-1.17676.46484-1.61621,1.70898-2.1084,2.09668-.9541,4.60059-1.74414,6.81836-2.41309,2.50391-.78809,5.12988-1.29199,7.74805-1.89258,5.12988-1.29199,7.41016-4.92676,6.8623-11.8916-1.09668-13.93066-9.94434-23.49902-21.12793-22.61816-12.6543.99609-21.5332,16.10547-20.08984,34.4502,1.47461,18.7373,12.28125,30.62012,25.62207,29.57031,9.32031-.7334,14.71191-7.47461,16.36426-20.33887.4248-3.38965-.16602-4.62598-2.58301-5.22559ZM118.78781,154.18545c-.57129-7.25977,1.10254-12.32715,3.75098-12.53516,2.64941-.20898,4.98145,4.34473,5.49902,10.91797.20801,2.64844-.37793,3.97852-1.88574,4.88672-1.54688.41895-3.05469,1.32617-4.25293,2.4082-.45898.43066-.73047.74805-1.2207.78711-1.17676.09277-1.5127-1.65918-1.89062-6.46484Z"/>
    <path class="st0" d="M191.58371,178.66104c-1.5127-1.6582-2.12695-3.18945-2.78125-6.49316l-3.99219-25.64648c-2.03906-13.3623-9.62695-19.47754-23.85156-18.35742-4.21777.33203-8.59473,1.16797-10.90332,1.94336-5.09082,1.78223-5.53027,4.97559-2.84277,14.04199.97266,3.57715,2.95801,3.7168,4.77344,1.69824,4.33789-5.08008,7.39844-7.58984,9.85059-7.7832,3.04102-.23926,4.9707,2.96387,5.35742,7.86914.08496,1.0791-.27734,1.50293-.96387,1.55664-1.0791.08496-2.99707-.45508-5.05664-.29297-9.32031.7334-14.9707,10.45605-13.93652,23.60156,1.05859,13.44043,7.11035,21.35449,16.82227,20.58984,3.33594-.2627,6.93945-2.125,9.43945-5.48145.61621-.93652,1.49219-1.10449,2.34668-.2832,2.60938,3.05273,5.96191,4.26953,9.68945,3.97656,4.70898-.37109,7.94238-3.19238,7.64844-6.9209-.12305-1.56934-.69141-2.51074-1.59961-4.01855ZM169.4011,177.74112c-3.04102.23926-5.58008-5.68066-6.2207-13.82324-.35547-4.5127.68848-7.55566,3.5332-7.7793,1.86426-.14648,2.7334.87109,3.09961,3.0127l2.54785,14.80371c.37305,2.24023-.59766,3.69922-2.95996,3.78613Z"/>
    <path class="st0" d="M216.05246,176.04483c-3.28516-1.61719-3.76172-2.66602-4.0166-5.9043l-2.43848-29.7168c-.18555-2.35352.36523-2.89062,1.93457-3.01465l.98145-.07715c2.74609-.21582,3.70117-1.87012,3.33887-6.48047-.37109-4.70898-1.76855-6.17773-4.71191-5.94629l-.88281.06934c-1.27539.10059-1.68359-.06641-1.77637-1.24316l-.37012-4.70898c-.12695-2.85156-1.73633-4.50195-4.18945-4.30859-2.35449.18555-3.72559,1.57617-5.50879,3.9873-1.05469,1.66211-1.85156,2.81055-3.13281,4.0957-.99512,1.16406-2.44824,2.75879-4,4.3623-2.56934,2.47266-3.68262,4.63281-3.48145,7.18359.19238,2.45215,1.18359,3.75684,2.90527,4.31152,2.61328.58398,3.36816,1.41309,3.51465,3.27734.23242,2.94336.07129,5.91699-.21484,14.82324-.13867,7.01953-.2334,13.34375.16797,18.44531.78809,10.00586,3.95508,12.61914,12.49023,11.94727l9.12305-.71777c2.94336-.23145,4.46387-2.22754,4.35352-4.88379-.20801-2.64844-1.50879-4.125-4.08594-5.50098Z"/>
    <path class="st0" d="M256.03098,173.58877c-1.58691-1.35645-2.18555-2.69043-2.48633-6.5166l-4.46289-56.70313c-.30078-3.8252-2.09961-5.36035-5.92578-5.05957l-11.87109.93457c-2.84473.22363-4.47168,2.12695-4.32227,5.27441.13184,1.66797.82812,2.99512,2.40039,4.15332,2.10059,1.6123,2.84473,3.5293,3.11426,6.96191l3.60645,45.81348c.30078,3.82617-.08301,5.23633-1.43848,6.8252-1.73926,1.71582-2.2207,3.13477-2.08887,4.80273.25488,3.2373,2.15918,4.86426,4.90527,4.64844l17.2666-1.35938c2.74707-.21582,4.37305-2.12012,4.11816-5.35742-.13184-1.66797-.82715-2.99512-2.81543-4.41797Z"/>
    <path class="st0" d="M277.26242,118.51748c-13.53906,1.06543-22.35742,15.67676-20.81348,35.29688,1.38965,17.6582,12.20312,29.63867,25.34863,28.60352,12.94922-1.01855,21.49023-15.41016,19.97656-34.63867-1.41992-18.0498-11.75977-30.26562-24.51172-29.26172ZM281.64817,170.48721c-3.92383.30859-7.31641-10.18359-8.70605-27.8418-.61719-7.84766,1.02832-12.02441,3.5791-12.22559,3.92285-.30859,7.31445,10.18262,8.71973,28.03711.61035,7.75-.94434,11.82129-3.59277,12.03027Z"/>
    <path class="st0" d="M337.97922,114.92276l-8.14355.64062c-2.55078.20117-4.16211,2.30176-3.92285,5.34277.13086,1.66797.91113,2.79102,1.91016,4.19238,1.20215,1.48535,1.69434,2.72949,1.63965,5.79492-.20312,8.70117-.83496,18.22754-1.72949,24.41699-.16309,1.69141-1.92188,1.92871-2.36328.08789-1.60156-5.30273-3.7168-14.61328-5.03027-23.78711-.31348-2.74023-.03809-4.24219.92578-5.79883.86523-1.54883,1.33887-3.06641,1.16895-5.22461-.20898-2.64844-2.01562-4.2832-4.56641-4.08203l-14.71484,1.1582c-3.13965.24707-4.84863,2.35547-4.60156,5.49512.16992,2.1582.85059,3.28809,1.83398,4.49414,1.52051,1.75586,2.1416,3.38477,2.66699,6.30469,2.96582,16.34961,6.95312,30.64453,11.1582,40.18457,1.33496,3.15234,2.92188,4.50781,6.25684,4.24609l4.02246-.31738c1.96191-.1543,4.33203-.14258,6.19629-.29004,2.74609-.21582,3.98828-1.99219,4.80469-5.41211,2.45801-10.16309,4.31738-25.41113,4.95215-42.43945.09375-2.57422.54395-4.38574,1.39258-6.13086.58594-1.3291,1.05176-2.94531.91992-4.61328-.21582-2.74707-2.12891-4.4707-4.77637-4.2627Z"/>
    <path class="st0" d="M382.89914,150.17959c-3.61719-.80176-4.37012-.34766-4.96289,2.16699-1.28125,5.03711-3.60059,8.17969-7.42578,8.48145-2.84473.22363-5.54297-1.43945-7.24707-4.2666-.77051-1.02539-1.56445-2.34473-1.68848-3.91406-.09277-1.17676.46484-1.61621,1.70898-2.1084,2.09668-.9541,4.60059-1.74414,6.81934-2.41309,2.50293-.78809,5.12891-1.29199,7.74707-1.89258,5.12891-1.29199,7.40918-4.92676,6.86133-11.8916-1.09668-13.93066-9.94336-23.49805-21.12695-22.61816-12.65527.99609-21.53418,16.10547-20.08984,34.4502,1.47461,18.7373,12.28125,30.62012,25.62305,29.57031,9.31934-.7334,14.71191-7.47461,16.36328-20.33887.4248-3.38965-.16602-4.62598-2.58203-5.22559ZM358.82688,135.29483c-.57129-7.25977,1.10352-12.32812,3.75195-12.53613s4.98145,4.34473,5.49902,10.91797c.20801,2.64844-.37891,3.97852-1.88672,4.88672-1.5459.41895-3.05371,1.32617-4.25195,2.4082-.45996.43164-.73145.74805-1.2207.78711-1.17871.09277-1.51367-1.6582-1.8916-6.46387Z"/>
    <path class="st0" d="M411.57785,108.24209c-2.55078.2002-4.85645,2.25781-7.08301,6.5791-.60254,1.13184-1.49316,1.10352-1.87207.04785l-.28809-1.16113c-.69922-2.61133-2.26367-3.67188-4.61816-3.48633l-9.90723.7793c-2.8457.22363-4.47266,2.12891-4.32324,5.27539.13184,1.66797.82715,2.99512,2.39941,4.15527,2.10059,1.61035,2.84375,3.52637,3.11426,6.95996l2.27051,28.8418c.30078,3.82617-.08203,5.2373-1.53516,6.83301-1.64258,1.70801-2.12402,3.12793-1.99219,4.7959.25488,3.2373,2.06152,4.87109,4.90723,4.64746l16.57812-1.30469c3.13867-.24707,4.96289-2.16699,4.70801-5.4043-.13184-1.66797-.92676-2.9873-3.11035-4.39453-1.78418-1.34082-2.57812-2.65918-2.87891-6.48535l-2.12695-24.50977c-.1543-1.96191.8252-3.32227,2.00195-3.41504,1.07812-.08496,1.72949.65332,2.52344,1.97266,1.15137,2.08105,1.79395,2.72168,2.97168,2.62891,2.84473-.22363,4.09375-6.93555,3.32129-16.74609-.37793-4.80664-1.92188-6.85645-5.06055-6.60938Z"/>
    <path class="st0" d="M439.62375,127.25674c-5.92969-2.59375-8.01465-4.00879-8.24609-6.95117-.18555-2.35547,1.15527-4.13965,3.31348-4.30859,2.64844-.20898,4.7207,2.29395,6.54297,4.12402,2.77441,2.64551,4.15039,3.81934,5.62109,3.7041,1.37402-.1084,2.26172-1.3623,2.78711-3.47754,1.53516-6.83301.3584-10.49023-3.43359-12.26465-2.87793-1.45117-6.88672-2.22168-11.1123-1.9873-10.90527.65918-18.39941,9.54102-17.48828,21.11621.80273,10.20312,5.59863,15.94629,14.82129,20.25391,6.04297,2.78223,8.46191,4.66406,8.73145,8.09766.20117,2.55078-1.23047,4.44043-3.38867,4.61035-2.45215.19336-4.99219-1.97656-7.69824-5.02148-2.88965-2.83203-4.31934-4.69434-6.18262-4.54688-1.66797.13086-2.4502,1.47559-2.95215,3.88574-1.5791,7.52637-.4375,11.97656,3.65527,13.82617,2.97559,1.44434,8.5625,2.18848,13.27148,1.81836,10.59473-.83398,17.85352-10.19043,16.89648-22.35449-.80273-10.20312-5.52246-16.24707-15.13867-20.52441Z"/>
  </g>
</svg>