<svg viewBox="0 0 411.26073 185.55556" xmlns="http://www.w3.org/2000/svg" id="a"><defs><style>.d{fill:#fff;}.e{fill:#61269e;}</style></defs><g id="b"><path d="M411.20572,21.78715c-.2742-3.47468-1.79004-6.61603-4.26987-8.84737-2.60408-2.34359-5.99993-3.48582-9.56287-3.20048l-7.89537.62125c-1.75491.13881-3.38899.62125-4.84913,1.38216-1.61609-.52613-3.33672-.73692-5.0565-.60239l-13.51998,1.06425c-2.29469.18069-4.47499.98232-6.34386,2.27991-3.19801-1.60329-6.57404-2.21173-9.82818-2.0177-.54669-4.80114-2.874-7.69571-4.77287-9.29638-1.94771-1.64179-5.34098-3.52181-10.43004-3.11393l-9.99303.78577c-3.73517.29391-7.04619,1.96999-9.32294,4.71974-.47932.57872-.89347,1.20398-1.26311,1.85548-.45769-.56822-.95157-1.10715-1.50721-1.59499-1.92114-1.68636-5.32727-3.61264-10.66397-3.18848l-10.3315.81233c-7.68543.60668-13.05212,6.79084-12.5894,14.44027.01885.48928.06427.97257.13453,1.44814-3.19442,1.45735-5.99473,3.76217-8.29639,6.83031-4.89969-4.30725-11.16198-6.59884-17.98522-6.06597-4.85058.38185-9.26451,2.22544-13.03011,5.17314-2.44149-1.77418-5.52623-2.69566-8.89252-2.43367l-6.96907.54841c-1.76348.13796-3.45497.62296-4.98195,1.40529-1.62552-.52699-3.40013-.74549-5.26386-.59897l-12.59454.99142c-3.2506.25567-6.16965,1.51568-8.40216,3.57161-4.13647-2.20092-8.79751-3.23545-13.76339-2.84154-5.07663.39931-9.62317,2.18646-13.46985,5.06656-2.80052-2.42097-6.33765-3.24734-9.52131-3.00403-2.40014.18937-4.6122.94429-6.62589,2.2579-1.61438-.50899-3.37914-.70865-5.23601-.56298l-8.47934.66751c-2.91749.22895-5.48082,1.27697-7.51576,2.91508-3.41341-1.89865-7.23117-2.76716-11.20852-2.45579-2.81788.22193-5.48365,1.11566-7.86537,2.59295-1.79946-.5784-3.61607-.67523-5.23944-.54755l-10.24409.80633c-2.7414.21572-5.24972,1.18181-7.29297,2.764-3.36082-1.82131-7.10789-2.64548-11.00973-2.33812-2.8183.22193-5.48408,1.11653-7.86623,2.5938-1.79775-.5784-3.61393-.67609-5.23773-.54841l-10.24409.80633c-2.26894.17855-4.37731.87387-6.19674,2.00314-.58632-1.49709-1.17618-2.96553-1.77446-4.381-2.38472-5.76343-7.36367-8.91678-13.32846-8.44977-.68251.05313-1.30761.11997-2.0154.19623-.71079.07712-1.52826.16623-2.67821.25793-.39974.03085-.81362.03256-1.2622.04199-.83975.01628-1.88516.03599-3.11993.13367-4.45539.34961-10.17554,2.6375-12.14681,11.54142-1.36117,5.91253-2.7429,14.08124-4.3547,25.75034-1.05825,7.97763-2.02997,19.98091-2.40442,25.32704-.03899.39931-.07626.64524-.10069.78148-1.94085,3.15849-2.74846,6.42495-2.46912,9.98189.54755,6.93222,5.8007,11.86446,12.41631,11.86446.1913,0,.3864-.01457.57995-.02292l1.55413,8.35358c-.98156,2.15743-1.41606,4.60283-1.21549,7.15073.30119,3.80715,1.96699,7.14302,4.83499,9.70426l.00385.04627,1.99141,25.30647c.00343.0437.00642.08569.00942.12682-2.40571,3.05395-3.47768,6.43866-3.18934,10.08471.59854,7.60231,6.11004,12.82933,13.30318,12.82847.39246,0,.79005-.01542,1.19193-.04713l14.9754-1.17908c1.76519-.13796,3.43869-.6221,4.93953-1.40615,1.7849.5227,3.74588.72493,5.82212.55955l11.87989-.93486c2.08095-.16367,3.97853-.78491,5.61176-1.76605,2.54067.89459,4.99737.93315,6.61046.80376l9.29981-.73093c3.34636-.26435,6.23734-1.65015,8.37404-3.78595,3.85016,2.10462,8.15474,3.24953,12.74524,3.24953.7292,0,1.46784-.02913,2.21076-.0874,4.35636-.34265,10.58535-1.92586,15.54277-7.49584,4.07713,3.32205,8.88887,4.71524,13.4149,4.71524.58483,0,1.16494-.02314,1.73734-.06855,3.29902-.25964,6.47893-1.35474,9.29209-3.14307,2.91128,1.29476,6.14774,1.84402,9.55259,1.5741,3.38926-.26735,6.45226-1.33332,8.98892-3.08587,2.06167.68026,4.37929,1.03791,6.97748,1.03791.82904,0,1.68636-.03513,2.57024-.10454l8.00462-.62981c3.82376-.30066,7.05781-1.96206,9.28738-4.50573,2.2835,1.93764,5.23012,3.05631,8.54189,3.05588.39203,0,.79048-.01542,1.19193-.04713l15.14892-1.19279c3.44784-.27056,6.50639-1.71399,8.74212-4.08157,3.95041,2.18785,8.30726,3.33694,12.85059,3.33694.71636,0,1.43614-.02828,2.16021-.08569,7.91727-.62285,14.78244-4.76151,19.58096-11.7143,3.48871,6.89452,9.16431,8.23105,13.01934,8.23105.47472,0,.92201-.01971,1.33332-.05227l3.52695-.27849c.65209-.05141,1.47385-.07798,2.34445-.10625,1.01627-.03256,2.06767-.06684,3.09165-.14824,3.47077-.2727,9.418-1.98198,12.1127-9.99538,5.22536,5.26708,11.93399,8.29532,19.40021,8.29532.72921,0,1.46699-.02913,2.21077-.0874,3.50971-.27613,8.23544-1.35731,12.53225-4.67839,1.99591,1.20843,4.34908,1.88783,6.92424,1.88751.3916,0,.79005-.01542,1.19193-.04713l14.54653-1.1448c3.27476-.25792,6.23445-1.4942,8.48683-3.51003.07712.03706.15531.07583.23115.11075,4.01538,1.91172,9.30495,2.56809,13.54654,2.56809,1.02655,0,1.99226-.03856,2.86372-.10711,14.65964-1.15423,24.7752-13.96727,23.52929-29.80513-.5287-6.72314-2.63579-12.31434-6.37867-16.85327.66152-1.16023,1.22621-2.54324,1.6358-4.19104l.04884-.20737c2.19583-9.77308-.62542-15.39865-4.02609-18.58777.1401-.32744.27897-.65745.40574-1.0101,1.95113-5.04621,3.52695-9.92533,4.86455-17.21745,2.44213-13.23635,3.89113-26.83516,4.19018-39.32602l.00257-.21508c.00086-.23993.012-.40102.02142-.49614,1.56125-2.70691,2.22105-5.74458,1.96142-9.03674l.00003.00002Z" class="d"></path><path d="M26.52128,97.68942c-.15852-2.01454-1.00684-3.13107-2.62465-4.35556-1.17051-.92287-1.57924-1.81917-1.68464-3.16277-.07284-.92372.03342-2.79003.27077-4.07707.14567-1.36331.51928-1.98455,1.61095-2.07025,1.42757-.11225,2.77803-.13282,3.86885-.21936,1.42757-.11225,2.26133-.26306,3.85686-.38817,1.0077-.07969,1.47385.47472,1.90143,1.62466.47472,1.73691.94344,3.38985,1.02912,4.48152.1191,1.51155-.24764,2.21505-1.42843,3.32301-1.16708,1.27504-1.64265,2.74805-1.51069,4.42754.16538,2.09938,1.38302,3.60921,3.48153,3.44383l16.87812-1.32818c2.0154-.15938,2.38043-1.96227,2.26818-3.38899-.13196-1.6795-.73521-2.90056-1.84831-4.16362-1.29476-1.41986-1.82003-2.73005-2.33502-4.97081-1.98369-8.03847-3.68205-14.57995-6.3264-23.49673-2.77546-9.49861-5.62633-17.80699-8.74026-25.1668-.83718-2.04539-1.99484-2.79945-3.84143-2.65378-1.34446.1054-2.42927.27506-4.69574.45415-1.25963.09854-2.61693.03684-4.38041.17567-2.18335.17137-3.02053,1.33503-3.64177,4.17218-1.449,6.28271-2.86115,15.18062-4.20732,24.91831-1.0077,7.59888-1.95542,19.16344-2.35301,24.85575-.22794,2.46869-.6461,3.59979-1.3933,4.84142-.90144,1.42329-1.3059,2.72148-1.17394,4.40097.15167,1.93143,1.27162,3.28017,3.28702,3.12164l10.91676-.85946c1.93057-.15167,2.99397-1.67179,2.81574-3.93911ZM24.38078,56.54253c.2245-1.45328,1.56725-1.55953,2.01541-.15852,1.41558,4.02823,3.87485,13.80447,4.33157,16.38883.0994,1.25877-.11996,1.69835-1.37959,1.79775l-5.03079.47986c-1.17565.09254-1.55182-.38474-1.56039-1.56725.02057-2.95883.80548-12.31434,1.62381-16.94068Z" class="e"></path><path d="M51.00257,54.44743c1.88259,1.37188,2.5184,3.01196,2.66578,5.95709l3.05309,38.79475c.33505,3.1842.00771,4.39327-1.23649,5.75743-1.40615,1.46271-1.90143,2.68463-1.78233,4.19704.21165,2.68634,1.84231,4.07879,4.19275,3.89371l14.77875-1.1628c2.60323-.2048,4.0865-1.75748,3.8817-4.36156-.11225-1.42758-.78577-2.47298-2.56467-3.59979-1.52012-1.06339-2.11651-2.19877-2.26989-5.22872l.03256.41988c-.06599-.83975.15253-1.27933.82433-1.33245.41988-.03256.84661.01799,1.53126.13282.59467.0377,1.70007.11996,2.79088.03428,11.16868-.87917,16.63991-11.87047,15.2586-29.42039-1.2819-16.2903-7.51319-25.68522-16.16176-25.00485-3.19105.25106-5.73258,2.31017-7.43265,5.40096-.67009,1.1508-1.52269,1.04883-1.8603-.02228-.87745-2.55096-1.54412-3.51152-3.81144-3.3333l-10.24409.80633c-2.3513.18509-3.82772,1.8226-3.61606,4.5098.11225,1.42757.70865,2.56295,1.96999,3.56208v-.00002ZM71.06575,57.09264c2.93913-.23136,5.8474,7.73513,6.7857,19.65957.59467,7.55689-.65638,12.04871-3.50553,12.35803-2.5124.28106-3.88-2.06082-4.31615-7.60317l-1.63837-20.82495c-.15852-2.01454.99485-3.45754,2.67435-3.5895h0Z" class="e"></path><path d="M92.65419,51.16984c1.88173,1.37188,2.51754,3.01196,2.66579,5.95623l3.05309,38.79475c.33419,3.18505.00771,4.39327-1.23735,5.75829-1.4053,1.46186-1.90058,2.68377-1.78147,4.19618.21079,2.68634,1.84145,4.07964,4.19275,3.89456l14.77874-1.16365c2.60323-.2048,4.0865-1.75662,3.88085-4.3607-.11225-1.42758-.78491-2.47298-2.56381-3.59979-1.52012-1.06339-2.11651-2.19964-2.27075-5.22959l.03342.41988c-.06598-.83975.15253-1.27933.82433-1.3316.41988-.03343.84575.01799,1.53126.13282.59468.0377,1.69921.11996,2.79088.03343,11.16782-.87831,16.63991-11.87047,15.2586-29.42039-1.28276-16.2903-7.51319-25.68522-16.16262-25.00399-3.19019.25106-5.73172,2.31017-7.43179,5.40011-.67009,1.1508-1.52269,1.04969-1.86116-.02142-.8766-2.55181-1.54326-3.51238-3.81058-3.3333l-10.24495.80633c-2.35044.18509-3.82686,1.82174-3.61521,4.50894.11225,1.42757.70779,2.56381,1.96999,3.56294v-.00003ZM112.71736,53.81419c2.93913-.23136,5.8474,7.73513,6.7857,19.65957.59468,7.55689-.65723,12.04956-3.50553,12.35803-2.5124.28106-3.88-2.06082-4.31615-7.60317l-1.63837-20.82495c-.15852-2.01454.99485-3.45668,2.67434-3.5895h.00001Z" class="e"></path><path d="M134.72481,47.85883c1.79775,1.37873,2.43442,3.01796,2.66578,5.95623l1.94257,24.6878c.25792,3.27503-.06941,4.48324-1.31447,5.84912-1.4053,1.46271-1.8166,2.67777-1.70435,4.10535.21851,2.77118,1.76433,4.16962,4.19961,3.97853l14.19092-1.11738c2.6872-.21165,4.24759-1.85431,4.02994-4.62547-.11225-1.42758-.79262-2.55695-2.66235-3.76174-1.52612-1.14823-2.20649-2.27675-2.46441-5.55178l-1.82003-20.97919c-.13196-1.67865.70522-2.84315,1.71292-2.92284.92373-.07284,1.4807.55955,2.16107,1.68807.98542,1.78233,1.53554,2.33074,2.54239,2.25104,2.43528-.19194,3.50467-5.93652,2.84315-14.33402-.3239-4.11392-1.64437-5.86883-4.33243-5.65803-2.18249.17223-4.15676,1.93314-6.06163,5.63061-.51499.97086-1.27762.946-1.60238.04284l-.24678-.99571c-.59811-2.23391-1.93742-3.1422-3.95282-2.98282l-8.48062.66751c-2.43528.19108-3.82772,1.82174-3.70004,4.5158.11225,1.42757.70865,2.56295,2.05396,3.55608h0Z" class="e"></path><path d="M200.68548,60.40966c-1.21592-15.45055-10.06501-25.90629-20.9809-25.04769-11.5877.91173-19.13688,13.41887-17.81556,30.21301,1.19022,15.11465,10.44546,25.36988,21.69812,24.48472,11.08385-.87231,18.39396-13.19179,17.09834-29.65004ZM183.45946,79.84645c-3.359.26478-6.26299-8.71712-7.45235-23.83091-.5287-6.718.88002-10.29294,3.06337-10.46517,3.35814-.26392,6.26128,8.71626,7.46435,23.99887.52184,6.63403-.80805,10.11899-3.07537,10.29722Z" class="e"></path><path d="M199.50126,43.18193c1.30161,1.50298,1.8346,2.89799,2.28361,5.39754,2.53896,13.99383,5.95109,26.23019,9.55087,34.39548,1.14223,2.69835,2.5004,3.85857,5.35555,3.63406l3.44298-.27078c1.6795-.13196,3.70775-.12253,5.30328-.2485,2.3513-.18509,3.4147-1.70521,4.11306-4.63319,2.10366-8.69827,3.69576-21.75039,4.23817-36.32605.08055-2.20306.46529-3.75317,1.19279-5.24758.50214-1.13709.89888-2.52011.78662-3.94768-.18509-2.3513-1.82089-3.82772-4.08821-3.64949l-6.96993.54841c-2.18249.17137-3.56294,1.96999-3.35814,4.57321.11225,1.42672.77977,2.38901,1.63494,3.58864,1.02912,1.27076,1.45157,2.33588,1.40444,4.95881-.17395,7.44893-.7155,15.60221-1.48156,20.90207-.13967,1.44643-1.64437,1.64951-2.0214.07455-1.37188-4.53979-3.18163-12.50799-4.30672-20.36137-.26906-2.34445-.03256-3.63149.79262-4.96223.74035-1.32732,1.1448-2.62551.99999-4.47381-.17909-2.26647-1.72492-3.66576-3.90827-3.49354l-12.5954.99142c-2.6872.21079-4.15077,2.01626-3.93911,4.7026.14481,1.84831.72835,2.81573,1.56982,3.84742Z" class="e"></path><path d="M258.3369,84.34511c7.97677-.62724,12.59283-6.39838,14.00755-17.40854.36332-2.90056-.1431-3.95969-2.20991-4.47296-3.09679-.68637-3.74117-.29734-4.24931,1.85601-1.09682,4.31015-3.08223,7.00078-6.3564,7.2587-2.43528.19194-4.74287-1.2322-6.20216-3.65206-.6598-.87745-1.33932-2.00597-1.44557-3.34958-.07883-1.00855.39845-1.38472,1.46356-1.80546,1.79347-.81661,3.9374-1.4927,5.83541-2.06511,2.14308-.67523,4.39069-1.10539,6.63146-1.62038,4.39155-1.10539,6.34354-4.21674,5.87397-10.17898-.93829-11.9236-8.51061-20.11373-18.08291-19.36052-10.83278.8526-18.43252,13.78647-17.19688,29.48894,1.2622,16.03837,10.51144,26.20878,21.93119,25.3099h0ZM252.73971,38.9926c2.26733-.17909,4.26387,3.7206,4.70689,9.34522.17823,2.26732-.32305,3.40527-1.61438,4.18333-1.32389.35818-2.61351,1.13452-3.6392,2.05996-.39417.36932-.62639.64095-1.0454.67437-1.00856.07883-1.29476-1.41815-1.61866-5.53378-.48843-6.21329.94343-10.55086,3.21076-10.7291Z" class="e"></path><path d="M289.21315,81.57737c3.18591-.33505,6.00507-2.07795,8.04104-5.19531.76006-1.07368,1.86545-.99228,2.21591.24764.76691,2.22105,1.76947,3.15678,4.20475,2.96483l8.9005-.70093c2.26733-.17823,3.5698-1.886,3.34443-4.74116-.12511-1.59467-.81233-2.80888-2.35216-4.12334-1.35817-1.16023-1.8843-2.47126-2.06424-5.83626l-3.74717-47.61041c-.27078-3.44298-1.81146-4.75916-5.08563-4.50123l-10.32893.81233c-2.51925.1988-4.07964,1.84317-3.86799,4.52951.02142,1.3496.70179,2.47898,2.13194,3.46526,1.9657,1.36588,2.60237,3.00596,2.82687,5.86026l.01285.16881c.06684.83975-.15938,1.19535-.74721,1.24163-.41988.03342-1.03341-.25621-1.81575-.53298-1.04797-.42416-2.59209-.72493-4.10278-.60668-9.57315.75407-14.76504,13.16009-13.3109,31.63374,1.15594,14.69477,7.25784,23.50786,15.74446,22.92432ZM290.94492,36.99948c2.26733-.17823,3.9314,2.73347,4.30329,8.53289l1.50727,19.14545c.14567,1.84659-.84661,3.19276-2.52611,3.32473-2.93998.23136-5.9708-8.23212-6.88938-19.90379-.51585-6.55005.91687-10.88762,3.60493-11.09927Z" class="e"></path><path d="M350.33925,21.93282c-2.93827.23136-5.58348,2.04454-7.31011,4.80028-.52184.88603-1.52955.96486-1.62209-.21079l-.9143-12.68537c-.24421-3.10708-2.04882-4.5715-5.07278-4.33329l-9.99217.78577c-2.35044.18509-3.82686,1.82345-3.61521,4.5098.11225,1.42757.70865,2.56381,1.96999,3.56208,1.88173,1.37445,2.51754,3.01281,2.7489,5.95194l2.83544,36.02272c.21165,2.6872-.10283,4.06423-1.27591,5.25529-1.25191,1.28105-1.82346,2.59379-1.6975,4.18932.14481,1.84659.84489,3.2279,2.52696,4.19361,4.15676,2.377,11.00673,3.52781,17.72473,2.99911,13.85502-1.09081,20.75983-12.1104,19.34596-30.0802-1.25534-15.9544-7.24756-25.53698-15.65192-24.96029ZM347.84914,67.58438c-2.26733.17823-3.41984-1.59038-3.73089-5.53549l-1.73948-23.1831c-.15253-1.93143,1.08568-3.38042,2.84915-3.51924,2.93913-.23136,5.52436,7.92964,6.43009,19.43422.66752,8.48062-.79262,12.48229-3.80887,12.80362h0Z" class="e"></path><path d="M401.75939,22.5335c-.17138-2.18335-1.71121-3.49867-3.64177-3.347l-7.8928.62125c-1.93143.15167-3.22704,1.94428-3.04881,4.2116.14567,1.84659.98628,2.87828,1.91172,3.90398,1.0951,1.01198,1.53554,2.32988,1.46871,4.70089.15938,6.32383-.36332,13.63138-1.13538,18.8464-.2742,1.87916-1.62466,1.90143-2.09252.24849-1.63666-4.68718-3.52181-11.46601-4.87741-17.95009-.56726-2.91257-.26649-4.45753.63581-5.87996.76691-.99057,1.35988-2.05053,1.24077-3.56122-.17823-2.26732-1.91257-3.90569-4.01109-3.74032l-13.51998,1.06425c-2.09938.16538-3.62721,2.22877-3.43526,4.66318.09854,1.26048.44301,2.41643,1.36245,3.35728,1.01713,1.10367,1.52869,2.24504,2.0034,3.98196,3.45926,12.82418,7.76426,25.66551,12.61853,37.95671.63067,1.55696.55441,2.74461-.35989,3.99995l-5.56892,7.61945c-.75406,1.15766-1.26905,2.12765-1.16965,3.38814.11911,1.51069,1.45757,2.419,3.38899,2.26732l11.75565-.92544c2.18335-.17138,3.13193-1.00684,3.88941-3.17905,1.75662-4.53208,3.18848-8.86879,4.43011-15.63992,2.31017-12.51828,3.74117-25.47357,4.03594-37.83246.00257-2.11223.38646-3.66319,1.20564-5.07963.59896-.97685.93229-2.10109.80633-3.69575h0Z" class="e"></path><path d="M91.30801,162.55071c-1.12681-1.12338-1.75234-2.46013-2.03512-4.94938l-4.21332-27.12479c-1.26648-8.38808-5.90396-13.39316-12.70423-12.85846-3.95969.31191-7.23985,2.64864-9.43862,6.63231-.36932.8089-.51413,1.16708-1.11653,1.21421-.5167.04027-.81576-.45501-1.12852-1.12338-1.8603-3.83886-5.10191-5.40182-9.06159-5.09077-4.13191.32562-7.16787,2.46955-9.20041,6.35468-.51414,1.16622-1.40187.88945-1.63494.12853-1.05226-3.46868-2.18078-4.59206-5.45152-4.33414l-8.78053.69065c-2.41043.18937-3.92369,1.86802-3.7069,4.62205.11568,1.46356.72664,2.62808,2.02054,3.65206,1.92885,1.40701,2.58095,3.08822,2.8183,6.10104l1.99141,25.30733c.26392,3.35729-.07112,4.59549-1.34703,5.99565-1.44129,1.4987-1.94856,2.75147-1.83289,4.21503.22365,2.84058,1.89372,4.2673,4.30414,4.07793l14.9784-1.17908c2.0651-.16195,3.23475-1.81317,3.0111-4.65376-.11482-1.46356-.72664-2.62808-2.12594-3.90312-1.30676-1.19707-1.74548-2.37444-2.0094-5.73172l-1.91772-24.36047c-.14224-1.80803,1.05397-3.11479,2.9477-3.26389,2.32388-.18337,3.84571,2.64264,4.05051,6.3504l1.71292,25.06911c.14738.76863.02314,1.38387-.35303,2.10794-.36932.80719-.38817,1.67522-.33419,2.3633.32561,4.13191,2.85086,5.40611,5.77714,5.1756l11.87904-.93486c1.98027-.15595,3.16277-1.63409,2.9734-4.04451-.13625-1.72149-.93915-3.13107-2.67692-4.29387-1.46443-1.00941-1.90401-2.18849-2.10709-4.7703l-2.19192-25.63809c-.14224-1.80718.89545-2.9297,2.69748-3.15678,1.80718-.14224,3.20819,2.25961,3.67862,6.03335l3.59293,28.03823c.7712,5.39668,2.55524,7.16101,6.257,6.86967l9.29638-.73093c2.66836-.21079,3.71118-2.37015,3.53466-4.60834-.14224-1.80803-.76006-3.05909-2.15336-4.24845h.00003Z" class="e"></path><path d="M125.35217,148.35208c-3.17306-.70351-3.83457-.30505-4.35385,1.90143-1.12424,4.41983-3.15935,7.17729-6.51663,7.44207-2.49611.19623-4.86284-1.26391-6.35725-3.74374-.67693-.89973-1.37445-2.05739-1.48242-3.43441-.0814-1.03255.40788-1.41815,1.49955-1.85002,1.83974-.83718,4.03681-1.5304,5.9828-2.11737,2.19706-.69151,4.50123-1.13366,6.79855-1.66065,4.50123-1.13366,6.50207-4.323,6.02135-10.43432-.96229-12.22351-8.72569-20.6193-18.53877-19.84638-11.10355.87403-18.89438,14.1318-17.6279,30.22844,1.2939,16.44111,10.77622,26.86772,22.48217,25.94657,8.17814-.64352,12.90902-6.55862,14.35887-17.84641.37275-2.97426-.14567-4.05908-2.26647-4.58521ZM104.23074,135.29053c-.50128-6.37011.96743-10.8165,3.29131-10.99901,2.32473-.18337,4.37099,3.81229,4.82514,9.58001.18252,2.32388-.33162,3.49096-1.65465,4.28787-1.35732.3676-2.68035,1.16365-3.73175,2.11309-.40273.37789-.64095.65638-1.07111.69065-1.03255.0814-1.32733-1.45585-1.65894-5.6726Z" class="e"></path><path d="M168.10574,156.76672c-1.32732-1.455-1.8663-2.7986-2.44042-5.69745l-3.50296-22.50359c-1.78918-11.7248-8.4472-17.09063-20.92863-16.10778-3.7009.29134-7.54147,1.02484-9.56715,1.70521-4.46696,1.56382-4.85256,4.36584-2.4944,12.32119.85346,3.13878,2.59551,3.26132,4.18847,1.49013,3.8063-4.45753,6.49178-6.65973,8.64343-6.8294,2.66835-.20994,4.36156,2.60066,4.70089,6.9048.07455.94686-.24336,1.31875-.84575,1.36588-.94686.07455-2.62979-.39931-4.43697-.25707-8.17814.64352-13.13609,9.1747-12.22865,20.70927.92887,11.79335,6.239,18.73757,14.76075,18.06663,2.92713-.2305,6.08905-1.86459,8.28268-4.80971.5407-.82176,1.30932-.96914,2.0591-.2485,2.2896,2.67863,5.2313,3.74631,8.50204,3.48925,4.13191-.32562,6.96907-2.80117,6.71115-6.07277-.10797-1.37702-.60668-2.20306-1.40358-3.52609ZM148.64153,155.95953c-2.66835.20994-4.89626-4.98452-5.45838-12.12925-.31191-3.95968.60411-6.62974,3.10022-6.82597,1.6358-.12853,2.39843.76434,2.71976,2.6435l2.23562,12.98956c.32733,1.9657-.52442,3.24589-2.59723,3.32215Z" class="e"></path><path d="M189.57593,154.47111c-2.88257-1.41901-3.30073-2.3393-3.52438-5.18074l-2.13965-26.0751c-.16281-2.0651.32048-2.53639,1.6975-2.64521l.86117-.06769c2.40957-.18937,3.24761-1.64094,2.9297-5.68631-.32562-4.13191-1.55182-5.42067-4.13448-5.21759l-.77463.06085c-1.1191.08827-1.47727-.05827-1.55868-1.09081l-.32476-4.13191c-.1114-2.50211-1.52355-3.95025-3.67605-3.78058-2.06596.16281-3.26903,1.38302-4.83371,3.49867-.92544,1.45842-1.62466,2.46612-2.7489,3.59379-.87317,1.02141-2.14822,2.42071-3.50981,3.82771-2.25447,2.16964-3.23132,4.06508-3.05481,6.30327.16881,2.15165,1.03855,3.29645,2.54924,3.78316,2.29303.51242,2.95541,1.23992,3.08394,2.87572.20394,2.58266.06255,5.19188-.18852,13.0067-.12168,6.15931-.2048,11.70852.14738,16.1849.69151,8.77967,3.4704,11.07271,10.9596,10.48317l8.00505-.62981c2.58266-.20308,3.91683-1.95456,3.82001-4.2853-.18252-2.32388-1.32389-3.61949-3.58522-4.82685h0Z" class="e"></path><path d="M224.65521,152.31604c-1.39244-1.19022-1.91772-2.36073-2.18164-5.71801l-3.91598-49.75434c-.26392-3.35644-1.84231-4.70346-5.1996-4.43954l-10.41633.82004c-2.49611.19623-3.92369,1.8663-3.79259,4.62805.11568,1.46356.72664,2.62808,2.10623,3.64434,1.84317,1.41472,2.49611,3.09679,2.73262,6.10875l3.16449,40.19919c.26392,3.35729-.07284,4.59463-1.2622,5.98879-1.52612,1.50555-1.94856,2.75061-1.83288,4.21418.22365,2.84058,1.89458,4.26816,4.30415,4.07879l15.15064-1.19279c2.41043-.18937,3.83714-1.8603,3.6135-4.70089-.11568-1.46356-.72578-2.62808-2.47041-3.87656h0Z" class="e"></path><path d="M243.28481,103.99355c-11.87989.93486-19.61759,13.75563-18.26285,30.97137,1.21935,15.49425,10.70767,26.00655,22.24224,25.09825,11.36233-.89373,18.85668-13.52169,17.5285-30.39382-1.24592-15.83786-10.31865-26.55667-21.50789-25.6758ZM247.13309,149.59456c-3.44298.27078-6.4198-8.93563-7.63916-24.42988-.54155-6.88595.9023-10.55086,3.14049-10.72738,3.44212-.27078,6.41809,8.93477,7.65115,24.60125.53555,6.80026-.82861,10.37263-3.15249,10.556Z" class="e"></path><path d="M296.56096,100.83935l-7.14559.56211c-2.23819.17652-3.65206,2.01968-3.44212,4.68803.11482,1.46356.79948,2.44899,1.67607,3.67862,1.05483,1.30333,1.4867,2.395,1.43871,5.08477-.17823,7.63487-.73264,15.99381-1.51755,21.42477-.1431,1.48413-1.68636,1.69235-2.07367.07712-1.4053-4.6529-3.26132-12.82247-4.41383-20.87208-.27506-2.40443-.03342-3.72232.81233-5.0882.7592-1.35902,1.17479-2.69063,1.02569-4.58435-.18337-2.32388-1.76862-3.75831-4.00681-3.58179l-12.91159,1.01627c-2.75489.21679-4.25445,2.06681-4.03766,4.82171.1491,1.89372.74635,2.88515,1.60924,3.9434,1.33417,1.54068,1.87916,2.96997,2.34016,5.53207,2.60237,14.34602,6.10104,26.88914,9.7908,35.26008,1.17137,2.76603,2.56381,3.95539,5.49008,3.72575l3.52952-.27849c1.72149-.13539,3.80116-.12511,5.43695-.2545,2.40957-.18937,3.49953-1.74805,4.21589-4.74887,2.15679-8.91763,3.7883-22.29708,4.34528-37.23864.08226-2.25876.47729-3.84828,1.22192-5.37954.51413-1.16622.92287-2.58437.80719-4.04794-.18937-2.41043-1.86802-3.92283-4.19104-3.74032v.00002Z" class="e"></path><path d="M335.9761,131.77558c-3.17391-.70351-3.83457-.30505-4.3547,1.90143-1.12424,4.41983-3.15935,7.17729-6.51578,7.44207-2.49611.19623-4.8637-1.26305-6.35897-3.74374-.67608-.89973-1.37273-2.05739-1.48156-3.43441-.0814-1.03255.40788-1.41815,1.49955-1.85002,1.83974-.83718,4.0368-1.5304,5.98365-2.11737,2.1962-.69151,4.50038-1.13366,6.79769-1.66065,4.50038-1.13366,6.50121-4.323,6.02049-10.43432-.96229-12.22351-8.72483-20.61844-18.53791-19.84638-11.10441.87403-18.89524,14.1318-17.6279,30.22844,1.2939,16.44111,10.77622,26.86772,22.48303,25.94657,8.17728-.64352,12.90902-6.55862,14.35802-17.84641.37275-2.97426-.14567-4.05908-2.26561-4.58521ZM314.85381,118.71489c-.50128-6.37011.96828-10.81735,3.29216-10.99987s4.37099,3.81229,4.82514,9.58001c.18252,2.32388-.33247,3.49096-1.65551,4.28787-1.35645.3676-2.67949,1.16365-3.73089,2.11309-.40359.37874-.64181.65638-1.07111.69065-1.03426.0814-1.32818-1.455-1.65979-5.67174Z" class="e"></path><path d="M361.14033,94.97737c-2.23819.17567-4.2613,1.98113-6.21501,5.77285-.5287.99314-1.31018.96829-1.64265.04199l-.25278-1.01884c-.61353-2.29132-1.98627-3.22191-4.05222-3.05909l-8.69313.6838c-2.49697.19623-3.92455,1.86802-3.79344,4.62891.11568,1.46356.72578,2.62808,2.10537,3.64606,1.84317,1.41301,2.49526,3.09422,2.73262,6.10704l1.99226,25.30734c.26392,3.35729-.07198,4.59549-1.34703,5.99565-1.44129,1.4987-1.86373,2.74461-1.74805,4.20818.22365,2.84058,1.80889,4.27416,4.30586,4.07793l14.54653-1.1448c2.75404-.21679,4.3547-1.90143,4.13106-4.74202-.11568-1.46356-.81319-2.62122-2.72919-3.856-1.56553-1.17651-2.26218-2.33331-2.52611-5.69059l-1.8663-21.50617c-.13539-1.72149.72407-2.91514,1.75662-2.99654.946-.07455,1.51755.57326,2.2142,1.73091,1.01027,1.82603,1.5741,2.38815,2.60751,2.30674,2.49611-.19623,3.59207-6.08562,2.91428-14.69392-.33162-4.2176-1.68636-6.01622-4.44039-5.79942Z" class="e"></path><path d="M385.74929,111.66184c-5.20302-2.27589-7.03248-3.51753-7.23556-6.09933-.16281-2.06681,1.0137-3.63235,2.90742-3.78058,2.32388-.18337,4.1422,2.01284,5.74115,3.61864,2.43442,2.32131,3.64177,3.3513,4.93225,3.25018,1.20564-.09511,1.98455-1.19535,2.44556-3.05138,1.34703-5.99565.31448-9.20468-3.01282-10.76166-2.52525-1.27334-6.04277-1.94942-9.75053-1.74376-9.56887.5784-16.14463,8.3718-15.34515,18.52849.70436,8.95276,4.91254,13.99213,13.00499,17.77186,5.30242,2.44127,7.42493,4.0925,7.66144,7.10532.17652,2.23819-1.07968,3.89627-2.9734,4.04537-2.15165.16966-4.38041-1.73434-6.75485-4.40612-2.53553-2.48498-3.79002-4.11906-5.42496-3.98967-1.46356.11482-2.14993,1.29476-2.59037,3.40956-1.38559,6.60404-.38389,10.50887,3.20733,12.13182,2.61094,1.26734,7.51319,1.92029,11.64511,1.59553,9.29638-.73178,15.66563-8.94163,14.82588-19.61502-.70436-8.95277-4.8457-14.25605-13.28348-18.00921v-.00002Z" class="e"></path></g></svg>